<svg width="251" height="340" viewBox="0 0 251 340" fill="none" xmlns="http://www.w3.org/2000/svg">
<rect y="187" width="211" height="29" fill="#D9D9D9"/>
<path d="M28.0728 197.091V208H26.0806L21.3345 201.134H21.2546V208H18.9482V197.091H20.9723L25.6811 203.952H25.777V197.091H28.0728ZM33.6325 208.16C32.8051 208.16 32.0896 207.984 31.4859 207.632C30.8857 207.277 30.4223 206.784 30.0956 206.152C29.7689 205.516 29.6056 204.779 29.6056 203.941C29.6056 203.096 29.7689 202.357 30.0956 201.725C30.4223 201.089 30.8857 200.596 31.4859 200.244C32.0896 199.889 32.8051 199.712 33.6325 199.712C34.46 199.712 35.1737 199.889 35.7739 200.244C36.3776 200.596 36.8428 201.089 37.1695 201.725C37.4962 202.357 37.6595 203.096 37.6595 203.941C37.6595 204.779 37.4962 205.516 37.1695 206.152C36.8428 206.784 36.3776 207.277 35.7739 207.632C35.1737 207.984 34.46 208.16 33.6325 208.16ZM33.6432 206.402C34.0196 206.402 34.3339 206.295 34.586 206.082C34.8382 205.866 35.0281 205.571 35.156 205.198C35.2874 204.825 35.3531 204.401 35.3531 203.925C35.3531 203.449 35.2874 203.025 35.156 202.652C35.0281 202.279 34.8382 201.984 34.586 201.768C34.3339 201.551 34.0196 201.443 33.6432 201.443C33.2632 201.443 32.9436 201.551 32.6844 201.768C32.4287 201.984 32.2352 202.279 32.1038 202.652C31.9759 203.025 31.912 203.449 31.912 203.925C31.912 204.401 31.9759 204.825 32.1038 205.198C32.2352 205.571 32.4287 205.866 32.6844 206.082C32.9436 206.295 33.2632 206.402 33.6432 206.402ZM39.135 208V199.818H41.2977V201.262H41.3936C41.564 200.782 41.8481 200.404 42.2458 200.127C42.6436 199.85 43.1194 199.712 43.6734 199.712C44.2345 199.712 44.7121 199.852 45.1063 200.132C45.5004 200.409 45.7632 200.786 45.8946 201.262H45.9798C46.1468 200.793 46.4486 200.418 46.8854 200.138C47.3257 199.854 47.846 199.712 48.4461 199.712C49.2096 199.712 49.8293 199.955 50.3051 200.441C50.7845 200.924 51.0242 201.61 51.0242 202.498V208H48.7604V202.945C48.7604 202.49 48.6396 202.15 48.3982 201.922C48.1567 201.695 47.8548 201.581 47.4926 201.581C47.0807 201.581 46.7593 201.713 46.5285 201.975C46.2977 202.235 46.1823 202.577 46.1823 203.004V208H43.9823V202.897C43.9823 202.496 43.8669 202.176 43.6361 201.938C43.4088 201.7 43.1088 201.581 42.7359 201.581C42.4838 201.581 42.2565 201.645 42.0541 201.773C41.8552 201.897 41.6972 202.073 41.58 202.3C41.4628 202.524 41.4042 202.787 41.4042 203.089V208H39.135ZM59.3033 208.133C58.6818 208.133 58.119 207.973 57.6147 207.654C57.114 207.331 56.7163 206.857 56.4215 206.232C56.1303 205.603 55.9847 204.832 55.9847 203.92C55.9847 202.982 56.1357 202.203 56.4375 201.581C56.7393 200.956 57.1406 200.489 57.6413 200.18C58.1456 199.868 58.6978 199.712 59.2979 199.712C59.756 199.712 60.1378 199.79 60.4432 199.946C60.7521 200.099 61.0007 200.29 61.1889 200.521C61.3807 200.749 61.5263 200.972 61.6257 201.192H61.695V197.091H63.9588V208H61.7216V206.69H61.6257C61.5192 206.917 61.3683 207.142 61.1729 207.366C60.9812 207.586 60.7308 207.769 60.4219 207.915C60.1165 208.06 59.7436 208.133 59.3033 208.133ZM60.0224 206.327C60.3881 206.327 60.6971 206.228 60.9492 206.029C61.2049 205.827 61.4002 205.544 61.5352 205.182C61.6737 204.82 61.7429 204.396 61.7429 203.909C61.7429 203.423 61.6754 203 61.5405 202.641C61.4055 202.283 61.2102 202.006 60.9545 201.81C60.6989 201.615 60.3881 201.517 60.0224 201.517C59.6495 201.517 59.3352 201.619 59.0795 201.821C58.8239 202.023 58.6303 202.304 58.4989 202.663C58.3675 203.021 58.3018 203.437 58.3018 203.909C58.3018 204.385 58.3675 204.806 58.4989 205.172C58.6339 205.534 58.8274 205.818 59.0795 206.024C59.3352 206.226 59.6495 206.327 60.0224 206.327ZM69.5532 208.16C68.7116 208.16 67.9871 207.989 67.3799 207.648C66.7762 207.304 66.311 206.817 65.9843 206.189C65.6576 205.557 65.4942 204.809 65.4942 203.946C65.4942 203.105 65.6576 202.366 65.9843 201.73C66.311 201.095 66.7709 200.599 67.3639 200.244C67.9605 199.889 68.6601 199.712 69.4626 199.712C70.0024 199.712 70.5049 199.799 70.9701 199.973C71.4388 200.143 71.8472 200.401 72.1952 200.745C72.5468 201.089 72.8202 201.523 73.0155 202.045C73.2108 202.563 73.3085 203.17 73.3085 203.866V204.49H66.3998V203.083H71.1725C71.1725 202.757 71.1015 202.467 70.9594 202.215C70.8174 201.963 70.6203 201.766 70.3682 201.624C70.1196 201.478 69.8302 201.406 69.4999 201.406C69.1555 201.406 68.8501 201.485 68.5837 201.645C68.3209 201.801 68.115 202.013 67.9658 202.279C67.8167 202.542 67.7403 202.835 67.7368 203.158V204.495C67.7368 204.9 67.8113 205.25 67.9605 205.544C68.1132 205.839 68.328 206.066 68.605 206.226C68.882 206.386 69.2105 206.466 69.5905 206.466C69.8426 206.466 70.0734 206.43 70.2829 206.359C70.4925 206.288 70.6718 206.182 70.8209 206.04C70.9701 205.898 71.0837 205.724 71.1618 205.518L73.2606 205.656C73.154 206.161 72.9356 206.601 72.6054 206.977C72.2787 207.35 71.8561 207.641 71.3376 207.851C70.8227 208.057 70.2279 208.16 69.5532 208.16ZM80.5302 197.091V208H78.261V197.091H80.5302ZM84.2496 197.091V198.241C84.2496 198.568 84.1856 198.902 84.0578 199.243C83.9335 199.58 83.7666 199.9 83.5571 200.202C83.3476 200.5 83.1185 200.754 82.8699 200.963L81.8685 200.372C82.0461 200.092 82.2023 199.781 82.3373 199.44C82.4758 199.099 82.545 198.703 82.545 198.252V197.091H84.2496ZM88.5522 208.16C87.7106 208.16 86.9862 207.989 86.3789 207.648C85.7752 207.304 85.31 206.817 84.9833 206.189C84.6566 205.557 84.4933 204.809 84.4933 203.946C84.4933 203.105 84.6566 202.366 84.9833 201.73C85.31 201.095 85.7699 200.599 86.3629 200.244C86.9595 199.889 87.6591 199.712 88.4616 199.712C89.0014 199.712 89.5039 199.799 89.9691 199.973C90.4379 200.143 90.8462 200.401 91.1942 200.745C91.5458 201.089 91.8192 201.523 92.0146 202.045C92.2099 202.563 92.3075 203.17 92.3075 203.866V204.49H85.3988V203.083H90.1715C90.1715 202.757 90.1005 202.467 89.9585 202.215C89.8164 201.963 89.6193 201.766 89.3672 201.624C89.1186 201.478 88.8292 201.406 88.4989 201.406C88.1545 201.406 87.8491 201.485 87.5827 201.645C87.32 201.801 87.114 202.013 86.9648 202.279C86.8157 202.542 86.7393 202.835 86.7358 203.158V204.495C86.7358 204.9 86.8104 205.25 86.9595 205.544C87.1122 205.839 87.3271 206.066 87.604 206.226C87.881 206.386 88.2095 206.466 88.5895 206.466C88.8416 206.466 89.0724 206.43 89.282 206.359C89.4915 206.288 89.6708 206.182 89.82 206.04C89.9691 205.898 90.0827 205.724 90.1609 205.518L92.2596 205.656C92.1531 206.161 91.9347 206.601 91.6044 206.977C91.2777 207.35 90.8551 207.641 90.3366 207.851C89.8217 208.057 89.2269 208.16 88.5522 208.16ZM100.596 202.151L98.5185 202.279C98.483 202.102 98.4066 201.942 98.2894 201.8C98.1722 201.654 98.0178 201.539 97.826 201.453C97.6378 201.365 97.4123 201.32 97.1495 201.32C96.7979 201.32 96.5014 201.395 96.2599 201.544C96.0185 201.69 95.8977 201.885 95.8977 202.13C95.8977 202.325 95.9759 202.49 96.1321 202.625C96.2884 202.76 96.5565 202.869 96.9364 202.95L98.4173 203.249C99.2127 203.412 99.8058 203.675 100.196 204.037C100.587 204.399 100.782 204.875 100.782 205.464C100.782 206.001 100.624 206.471 100.308 206.876C99.9957 207.281 99.5661 207.597 99.0192 207.824C98.4759 208.048 97.8491 208.16 97.1388 208.16C96.0558 208.16 95.1928 207.934 94.5501 207.483C93.9109 207.029 93.5362 206.411 93.4261 205.63L95.658 205.512C95.7255 205.843 95.8888 206.095 96.1481 206.269C96.4073 206.439 96.7393 206.525 97.1442 206.525C97.5419 206.525 97.8615 206.448 98.103 206.295C98.348 206.139 98.4723 205.939 98.4759 205.694C98.4723 205.488 98.3853 205.319 98.2148 205.188C98.0444 205.053 97.7816 204.95 97.4265 204.879L96.0096 204.596C95.2106 204.436 94.6158 204.159 94.2251 203.765C93.8381 203.371 93.6445 202.869 93.6445 202.258C93.6445 201.732 93.7866 201.279 94.0707 200.9C94.3583 200.52 94.7614 200.227 95.2798 200.021C95.8018 199.815 96.4126 199.712 97.1122 199.712C98.1456 199.712 98.9588 199.93 99.5518 200.367C100.148 200.804 100.496 201.398 100.596 202.151ZM102.211 211.068V199.818H104.448V201.192H104.55C104.649 200.972 104.793 200.749 104.981 200.521C105.173 200.29 105.421 200.099 105.727 199.946C106.036 199.79 106.419 199.712 106.877 199.712C107.474 199.712 108.024 199.868 108.529 200.18C109.033 200.489 109.436 200.956 109.738 201.581C110.04 202.203 110.191 202.982 110.191 203.92C110.191 204.832 110.043 205.603 109.748 206.232C109.457 206.857 109.06 207.331 108.555 207.654C108.055 207.973 107.494 208.133 106.872 208.133C106.432 208.133 106.057 208.06 105.748 207.915C105.443 207.769 105.192 207.586 104.997 207.366C104.802 207.142 104.653 206.917 104.55 206.69H104.48V211.068H102.211ZM104.432 203.909C104.432 204.396 104.5 204.82 104.635 205.182C104.77 205.544 104.965 205.827 105.221 206.029C105.476 206.228 105.787 206.327 106.153 206.327C106.522 206.327 106.835 206.226 107.09 206.024C107.346 205.818 107.54 205.534 107.671 205.172C107.806 204.806 107.873 204.385 107.873 203.909C107.873 203.437 107.808 203.021 107.676 202.663C107.545 202.304 107.351 202.023 107.096 201.821C106.84 201.619 106.526 201.517 106.153 201.517C105.784 201.517 105.471 201.615 105.215 201.81C104.963 202.006 104.77 202.283 104.635 202.641C104.5 203 104.432 203.423 104.432 203.909ZM115.432 208.16C114.59 208.16 113.866 207.989 113.259 207.648C112.655 207.304 112.19 206.817 111.863 206.189C111.536 205.557 111.373 204.809 111.373 203.946C111.373 203.105 111.536 202.366 111.863 201.73C112.19 201.095 112.65 200.599 113.243 200.244C113.839 199.889 114.539 199.712 115.342 199.712C115.881 199.712 116.384 199.799 116.849 199.973C117.318 200.143 117.726 200.401 118.074 200.745C118.426 201.089 118.699 201.523 118.894 202.045C119.09 202.563 119.187 203.17 119.187 203.866V204.49H112.279V203.083H117.051C117.051 202.757 116.98 202.467 116.838 202.215C116.696 201.963 116.499 201.766 116.247 201.624C115.998 201.478 115.709 201.406 115.379 201.406C115.034 201.406 114.729 201.485 114.463 201.645C114.2 201.801 113.994 202.013 113.845 202.279C113.696 202.542 113.619 202.835 113.616 203.158V204.495C113.616 204.9 113.69 205.25 113.839 205.544C113.992 205.839 114.207 206.066 114.484 206.226C114.761 206.386 115.089 206.466 115.469 206.466C115.722 206.466 115.952 206.43 116.162 206.359C116.371 206.288 116.551 206.182 116.7 206.04C116.849 205.898 116.963 205.724 117.041 205.518L119.139 205.656C119.033 206.161 118.815 206.601 118.484 206.977C118.158 207.35 117.735 207.641 117.217 207.851C116.702 208.057 116.107 208.16 115.432 208.16ZM114.505 198.763L112.881 196.34H114.974L116.109 198.763H114.505ZM124.365 208.16C123.527 208.16 122.806 207.982 122.202 207.627C121.602 207.268 121.141 206.771 120.817 206.136C120.498 205.5 120.338 204.768 120.338 203.941C120.338 203.103 120.5 202.368 120.823 201.736C121.149 201.1 121.613 200.605 122.213 200.25C122.813 199.891 123.527 199.712 124.354 199.712C125.068 199.712 125.693 199.841 126.229 200.1C126.766 200.36 127.19 200.724 127.502 201.192C127.815 201.661 127.987 202.212 128.019 202.844H125.878C125.817 202.435 125.658 202.107 125.398 201.858C125.143 201.606 124.807 201.48 124.392 201.48C124.04 201.48 123.733 201.576 123.47 201.768C123.211 201.956 123.008 202.231 122.863 202.593C122.717 202.956 122.644 203.394 122.644 203.909C122.644 204.431 122.715 204.875 122.858 205.241C123.003 205.607 123.207 205.885 123.47 206.077C123.733 206.269 124.04 206.365 124.392 206.365C124.651 206.365 124.883 206.311 125.089 206.205C125.299 206.098 125.471 205.944 125.606 205.741C125.745 205.536 125.835 205.289 125.878 205.001H128.019C127.984 205.626 127.813 206.176 127.508 206.652C127.206 207.125 126.789 207.494 126.256 207.76C125.723 208.027 125.093 208.16 124.365 208.16ZM133.201 208.16C132.359 208.16 131.635 207.989 131.027 207.648C130.424 207.304 129.958 206.817 129.632 206.189C129.305 205.557 129.142 204.809 129.142 203.946C129.142 203.105 129.305 202.366 129.632 201.73C129.958 201.095 130.418 200.599 131.011 200.244C131.608 199.889 132.308 199.712 133.11 199.712C133.65 199.712 134.152 199.799 134.618 199.973C135.086 200.143 135.495 200.401 135.843 200.745C136.194 201.089 136.468 201.523 136.663 202.045C136.858 202.563 136.956 203.17 136.956 203.866V204.49H130.047V203.083H134.82C134.82 202.757 134.749 202.467 134.607 202.215C134.465 201.963 134.268 201.766 134.016 201.624C133.767 201.478 133.478 201.406 133.147 201.406C132.803 201.406 132.498 201.485 132.231 201.645C131.968 201.801 131.762 202.013 131.613 202.279C131.464 202.542 131.388 202.835 131.384 203.158V204.495C131.384 204.9 131.459 205.25 131.608 205.544C131.761 205.839 131.975 206.066 132.252 206.226C132.529 206.386 132.858 206.466 133.238 206.466C133.49 206.466 133.721 206.43 133.93 206.359C134.14 206.288 134.319 206.182 134.468 206.04C134.618 205.898 134.731 205.724 134.809 205.518L136.908 205.656C136.801 206.161 136.583 206.601 136.253 206.977C135.926 207.35 135.504 207.641 134.985 207.851C134.47 208.057 133.875 208.16 133.201 208.16Z" fill="black"/>
<rect x="48" width="163" height="153" fill="#D9D9D9"/>
<path d="M110.114 69.2727V78H109.057V69.2727H110.114ZM112.096 78V71.4545H113.068V72.4773H113.153C113.289 72.1278 113.51 71.8565 113.814 71.6634C114.118 71.4673 114.483 71.3693 114.909 71.3693C115.341 71.3693 115.7 71.4673 115.987 71.6634C116.277 71.8565 116.502 72.1278 116.664 72.4773H116.733C116.9 72.1392 117.152 71.8707 117.487 71.6719C117.822 71.4702 118.224 71.3693 118.693 71.3693C119.278 71.3693 119.757 71.5526 120.129 71.919C120.501 72.2827 120.687 72.8494 120.687 73.6193V78H119.681V73.6193C119.681 73.1364 119.549 72.7912 119.285 72.5838C119.021 72.3764 118.71 72.2727 118.352 72.2727C117.892 72.2727 117.535 72.4119 117.282 72.6903C117.029 72.9659 116.903 73.3153 116.903 73.7386V78H115.88V73.517C115.88 73.1449 115.76 72.8452 115.518 72.6179C115.277 72.3878 114.966 72.2727 114.585 72.2727C114.324 72.2727 114.079 72.3423 113.852 72.4815C113.627 72.6207 113.446 72.8139 113.306 73.0611C113.17 73.3054 113.102 73.5881 113.102 73.9091V78H112.096ZM124.452 78.1534C124.037 78.1534 123.661 78.0753 123.323 77.919C122.985 77.7599 122.716 77.5312 122.517 77.233C122.319 76.9318 122.219 76.5682 122.219 76.142C122.219 75.767 122.293 75.4631 122.441 75.2301C122.588 74.9943 122.786 74.8097 123.033 74.6761C123.28 74.5426 123.553 74.4432 123.851 74.3778C124.152 74.3097 124.455 74.2557 124.759 74.2159C125.157 74.1648 125.479 74.1264 125.726 74.1009C125.976 74.0724 126.158 74.0256 126.272 73.9602C126.388 73.8949 126.446 73.7812 126.446 73.6193V73.5852C126.446 73.1648 126.331 72.8381 126.101 72.6051C125.874 72.3722 125.529 72.2557 125.066 72.2557C124.586 72.2557 124.209 72.3608 123.936 72.571C123.664 72.7812 123.472 73.0057 123.361 73.2443L122.407 72.9034C122.577 72.5057 122.804 72.196 123.088 71.9744C123.375 71.75 123.688 71.5937 124.026 71.5057C124.367 71.4148 124.702 71.3693 125.032 71.3693C125.242 71.3693 125.483 71.3949 125.756 71.446C126.032 71.4943 126.297 71.5952 126.553 71.7486C126.811 71.902 127.026 72.1335 127.196 72.4432C127.367 72.7528 127.452 73.1676 127.452 73.6875V78H126.446V77.1136H126.395C126.327 77.2557 126.213 77.4077 126.054 77.5696C125.895 77.7315 125.684 77.8693 125.419 77.983C125.155 78.0966 124.833 78.1534 124.452 78.1534ZM124.605 77.25C125.003 77.25 125.338 77.1719 125.611 77.0156C125.887 76.8594 126.094 76.6577 126.233 76.4105C126.375 76.1634 126.446 75.9034 126.446 75.6307V74.7102C126.404 74.7614 126.31 74.8082 126.165 74.8509C126.023 74.8906 125.858 74.9261 125.671 74.9574C125.486 74.9858 125.306 75.0114 125.13 75.0341C124.956 75.054 124.816 75.071 124.708 75.0852C124.446 75.1193 124.202 75.1747 123.975 75.2514C123.75 75.3253 123.569 75.4375 123.429 75.5881C123.293 75.7358 123.225 75.9375 123.225 76.1932C123.225 76.5426 123.354 76.8068 123.613 76.9858C123.874 77.1619 124.205 77.25 124.605 77.25ZM131.93 80.5909C131.444 80.5909 131.026 80.5284 130.677 80.4034C130.327 80.2812 130.036 80.1193 129.803 79.9176C129.573 79.7188 129.39 79.5057 129.254 79.2784L130.055 78.7159C130.146 78.8352 130.261 78.9716 130.4 79.125C130.539 79.2812 130.729 79.4162 130.971 79.5298C131.215 79.6463 131.535 79.7045 131.93 79.7045C132.458 79.7045 132.894 79.5767 133.238 79.321C133.582 79.0653 133.754 78.6648 133.754 78.1193V76.7898H133.668C133.594 76.9091 133.489 77.0568 133.353 77.233C133.219 77.4062 133.026 77.5611 132.773 77.6974C132.523 77.831 132.185 77.8977 131.759 77.8977C131.231 77.8977 130.756 77.7727 130.336 77.5227C129.918 77.2727 129.587 76.9091 129.343 76.4318C129.102 75.9545 128.981 75.375 128.981 74.6932C128.981 74.0227 129.099 73.4389 129.335 72.9418C129.57 72.4418 129.898 72.0554 130.319 71.7827C130.739 71.5071 131.225 71.3693 131.776 71.3693C132.202 71.3693 132.54 71.4403 132.79 71.5824C133.043 71.7216 133.237 71.8807 133.37 72.0597C133.506 72.2358 133.612 72.3807 133.685 72.4943H133.788V71.4545H134.759V78.1875C134.759 78.75 134.631 79.2074 134.376 79.5597C134.123 79.9148 133.782 80.1747 133.353 80.3395C132.927 80.5071 132.452 80.5909 131.93 80.5909ZM131.896 76.9943C132.299 76.9943 132.64 76.902 132.918 76.7173C133.197 76.5327 133.408 76.267 133.553 75.9205C133.698 75.5739 133.771 75.1591 133.771 74.6761C133.771 74.2045 133.7 73.7884 133.558 73.4276C133.415 73.0668 133.205 72.7841 132.927 72.5795C132.648 72.375 132.305 72.2727 131.896 72.2727C131.469 72.2727 131.114 72.3807 130.83 72.5966C130.549 72.8125 130.337 73.1023 130.195 73.4659C130.056 73.8295 129.987 74.233 129.987 74.6761C129.987 75.1307 130.058 75.5327 130.2 75.8821C130.344 76.2287 130.558 76.5014 130.839 76.7003C131.123 76.8963 131.475 76.9943 131.896 76.9943ZM139.344 78.1364C138.714 78.1364 138.17 77.9972 137.712 77.7188C137.258 77.4375 136.907 77.0455 136.66 76.5426C136.415 76.0369 136.293 75.4489 136.293 74.7784C136.293 74.108 136.415 73.517 136.66 73.0057C136.907 72.4915 137.251 72.0909 137.691 71.804C138.134 71.5142 138.651 71.3693 139.242 71.3693C139.583 71.3693 139.92 71.4261 140.252 71.5398C140.585 71.6534 140.887 71.8381 141.16 72.0938C141.433 72.3466 141.65 72.6818 141.812 73.0994C141.974 73.517 142.055 74.0312 142.055 74.642V75.0682H137.009V74.1989H141.032C141.032 73.8295 140.958 73.5 140.81 73.2102C140.665 72.9205 140.458 72.6918 140.188 72.5241C139.921 72.3565 139.606 72.2727 139.242 72.2727C138.842 72.2727 138.495 72.3722 138.202 72.571C137.913 72.767 137.69 73.0227 137.533 73.3381C137.377 73.6534 137.299 73.9915 137.299 74.3523V74.9318C137.299 75.4261 137.384 75.8452 137.555 76.1889C137.728 76.5298 137.968 76.7898 138.275 76.9688C138.582 77.1449 138.938 77.233 139.344 77.233C139.609 77.233 139.847 77.196 140.06 77.1222C140.276 77.0455 140.462 76.9318 140.619 76.7812C140.775 76.6278 140.896 76.4375 140.981 76.2102L141.952 76.483C141.85 76.8125 141.678 77.1023 141.437 77.3523C141.195 77.5994 140.897 77.7926 140.542 77.9318C140.187 78.0682 139.788 78.1364 139.344 78.1364Z" fill="black"/>
<rect y="245" width="251" height="34" fill="#D9D9D9"/>
<path d="M14.75 267H12.0568V258.273H14.8693C15.7159 258.273 16.4403 258.447 17.0426 258.797C17.6449 259.143 18.1065 259.642 18.4276 260.293C18.7486 260.94 18.9091 261.716 18.9091 262.619C18.9091 263.528 18.7472 264.311 18.4233 264.967C18.0994 265.621 17.6278 266.124 17.0085 266.476C16.3892 266.825 15.6364 267 14.75 267ZM13.1136 266.062H14.6818C15.4034 266.062 16.0014 265.923 16.4759 265.645C16.9503 265.366 17.304 264.97 17.5369 264.456C17.7699 263.942 17.8864 263.33 17.8864 262.619C17.8864 261.915 17.7713 261.308 17.5412 260.8C17.3111 260.288 16.9673 259.896 16.5099 259.624C16.0526 259.348 15.483 259.21 14.8011 259.21H13.1136V266.062ZM23.2898 267.136C22.6591 267.136 22.1151 266.997 21.6577 266.719C21.2031 266.438 20.8523 266.045 20.6051 265.543C20.3608 265.037 20.2386 264.449 20.2386 263.778C20.2386 263.108 20.3608 262.517 20.6051 262.006C20.8523 261.491 21.196 261.091 21.6364 260.804C22.0795 260.514 22.5966 260.369 23.1875 260.369C23.5284 260.369 23.8651 260.426 24.1974 260.54C24.5298 260.653 24.8324 260.838 25.1051 261.094C25.3778 261.347 25.5952 261.682 25.7571 262.099C25.919 262.517 26 263.031 26 263.642V264.068H20.9545V263.199H24.9773C24.9773 262.83 24.9034 262.5 24.7557 262.21C24.6108 261.92 24.4034 261.692 24.1335 261.524C23.8665 261.357 23.5511 261.273 23.1875 261.273C22.7869 261.273 22.4403 261.372 22.1477 261.571C21.858 261.767 21.6349 262.023 21.4787 262.338C21.3224 262.653 21.2443 262.991 21.2443 263.352V263.932C21.2443 264.426 21.3295 264.845 21.5 265.189C21.6733 265.53 21.9134 265.79 22.2202 265.969C22.527 266.145 22.8835 266.233 23.2898 266.233C23.554 266.233 23.7926 266.196 24.0057 266.122C24.2216 266.045 24.4077 265.932 24.5639 265.781C24.7202 265.628 24.8409 265.437 24.9261 265.21L25.8977 265.483C25.7955 265.812 25.6236 266.102 25.3821 266.352C25.1406 266.599 24.8423 266.793 24.4872 266.932C24.1321 267.068 23.733 267.136 23.2898 267.136ZM32.1662 261.92L31.2628 262.176C31.206 262.026 31.1222 261.879 31.0114 261.737C30.9034 261.592 30.7557 261.473 30.5682 261.379C30.3807 261.286 30.1406 261.239 29.848 261.239C29.4474 261.239 29.1136 261.331 28.8466 261.516C28.5824 261.697 28.4503 261.929 28.4503 262.21C28.4503 262.46 28.5412 262.658 28.723 262.803C28.9048 262.947 29.1889 263.068 29.5753 263.165L30.5469 263.403C31.1321 263.545 31.5682 263.763 31.8551 264.055C32.142 264.345 32.2855 264.719 32.2855 265.176C32.2855 265.551 32.1776 265.886 31.9616 266.182C31.7486 266.477 31.4503 266.71 31.0668 266.881C30.6832 267.051 30.2372 267.136 29.7287 267.136C29.0611 267.136 28.5085 266.991 28.071 266.702C27.6335 266.412 27.3565 265.989 27.2401 265.432L28.1946 265.193C28.2855 265.545 28.4574 265.81 28.7102 265.986C28.9659 266.162 29.2997 266.25 29.7116 266.25C30.1804 266.25 30.5526 266.151 30.8281 265.952C31.1065 265.75 31.2457 265.509 31.2457 265.227C31.2457 265 31.1662 264.81 31.0071 264.656C30.848 264.5 30.6037 264.384 30.2741 264.307L29.1832 264.051C28.5838 263.909 28.1435 263.689 27.8622 263.391C27.5838 263.089 27.4446 262.713 27.4446 262.261C27.4446 261.892 27.5483 261.565 27.7557 261.281C27.9659 260.997 28.2514 260.774 28.6122 260.612C28.9759 260.45 29.3878 260.369 29.848 260.369C30.4957 260.369 31.0043 260.511 31.3736 260.795C31.7457 261.08 32.0099 261.455 32.1662 261.92ZM36.4585 267.136C35.8448 267.136 35.3164 266.991 34.8732 266.702C34.43 266.412 34.0891 266.013 33.8505 265.504C33.6119 264.996 33.4925 264.415 33.4925 263.761C33.4925 263.097 33.6147 262.51 33.859 262.001C34.1062 261.49 34.4499 261.091 34.8903 260.804C35.3335 260.514 35.8505 260.369 36.4414 260.369C36.9016 260.369 37.3164 260.455 37.6857 260.625C38.055 260.795 38.3576 261.034 38.5934 261.341C38.8292 261.648 38.9755 262.006 39.0323 262.415H38.0266C37.9499 262.116 37.7795 261.852 37.5153 261.622C37.2539 261.389 36.9016 261.273 36.4585 261.273C36.0664 261.273 35.7227 261.375 35.4272 261.58C35.1346 261.781 34.9059 262.067 34.7411 262.436C34.5792 262.803 34.4982 263.233 34.4982 263.727C34.4982 264.233 34.5778 264.673 34.7369 265.048C34.8988 265.423 35.1261 265.714 35.4187 265.922C35.7141 266.129 36.0607 266.233 36.4585 266.233C36.7198 266.233 36.957 266.188 37.1701 266.097C37.3832 266.006 37.5636 265.875 37.7113 265.705C37.859 265.534 37.9641 265.33 38.0266 265.091H39.0323C38.9755 265.477 38.8349 265.825 38.6104 266.135C38.3888 266.442 38.0948 266.686 37.7283 266.868C37.3647 267.047 36.9414 267.136 36.4585 267.136ZM40.5025 267V260.455H41.4741V261.443H41.5423C41.6616 261.119 41.8775 260.857 42.19 260.655C42.5025 260.453 42.8548 260.352 43.2468 260.352C43.3207 260.352 43.413 260.354 43.5238 260.357C43.6346 260.359 43.7184 260.364 43.7752 260.369V261.392C43.7411 261.384 43.663 261.371 43.5408 261.354C43.4215 261.334 43.2951 261.324 43.1616 261.324C42.8434 261.324 42.5593 261.391 42.3093 261.524C42.0621 261.655 41.8661 261.837 41.7212 262.07C41.5792 262.3 41.5082 262.562 41.5082 262.858V267H40.5025ZM44.9673 267V260.455H45.973V267H44.9673ZM45.4787 259.364C45.2827 259.364 45.1136 259.297 44.9716 259.163C44.8324 259.03 44.7628 258.869 44.7628 258.682C44.7628 258.494 44.8324 258.334 44.9716 258.2C45.1136 258.067 45.2827 258 45.4787 258C45.6747 258 45.8423 258.067 45.9815 258.2C46.1236 258.334 46.1946 258.494 46.1946 258.682C46.1946 258.869 46.1236 259.03 45.9815 259.163C45.8423 259.297 45.6747 259.364 45.4787 259.364ZM47.815 269.455V260.455H48.7866V261.494H48.9059C48.9798 261.381 49.082 261.236 49.2127 261.06C49.3462 260.881 49.5366 260.722 49.7837 260.582C50.0337 260.44 50.3718 260.369 50.7979 260.369C51.3491 260.369 51.8349 260.507 52.2553 260.783C52.6758 261.058 53.0039 261.449 53.2397 261.955C53.4755 262.46 53.5934 263.057 53.5934 263.744C53.5934 264.438 53.4755 265.038 53.2397 265.547C53.0039 266.053 52.6772 266.445 52.2596 266.723C51.842 266.999 51.3604 267.136 50.815 267.136C50.3945 267.136 50.0579 267.067 49.805 266.928C49.5522 266.786 49.3576 266.625 49.2212 266.446C49.0849 266.264 48.9798 266.114 48.9059 265.994H48.8207V269.455H47.815ZM48.8036 263.727C48.8036 264.222 48.8761 264.658 49.021 265.036C49.1658 265.411 49.3775 265.705 49.6559 265.918C49.9343 266.128 50.2752 266.233 50.6786 266.233C51.0991 266.233 51.4499 266.122 51.7312 265.901C52.0153 265.676 52.2283 265.375 52.3704 264.997C52.5153 264.616 52.5877 264.193 52.5877 263.727C52.5877 263.267 52.5167 262.852 52.3746 262.483C52.2354 262.111 52.0238 261.817 51.7397 261.601C51.4585 261.382 51.1048 261.273 50.6786 261.273C50.2695 261.273 49.9258 261.376 49.6474 261.584C49.369 261.788 49.1587 262.075 49.0167 262.445C48.8746 262.811 48.8036 263.239 48.8036 263.727ZM57.9741 260.455V261.307H54.582V260.455H57.9741ZM55.5707 258.886H56.5763V265.125C56.5763 265.409 56.6175 265.622 56.6999 265.764C56.7852 265.903 56.8931 265.997 57.0238 266.045C57.1573 266.091 57.2979 266.114 57.4457 266.114C57.5565 266.114 57.6474 266.108 57.7184 266.097C57.7894 266.082 57.8462 266.071 57.8888 266.062L58.0934 266.966C58.0252 266.991 57.93 267.017 57.8079 267.043C57.6857 267.071 57.5309 267.085 57.3434 267.085C57.0593 267.085 56.7809 267.024 56.5082 266.902C56.2383 266.78 56.0138 266.594 55.8349 266.344C55.6587 266.094 55.5707 265.778 55.5707 265.398V258.886ZM59.4869 267V260.455H60.4925V267H59.4869ZM59.9982 259.364C59.8022 259.364 59.6332 259.297 59.4911 259.163C59.3519 259.03 59.2823 258.869 59.2823 258.682C59.2823 258.494 59.3519 258.334 59.4911 258.2C59.6332 258.067 59.8022 258 59.9982 258C60.1942 258 60.3619 258.067 60.5011 258.2C60.6431 258.334 60.7141 258.494 60.7141 258.682C60.7141 258.869 60.6431 259.03 60.5011 259.163C60.3619 259.297 60.1942 259.364 59.9982 259.364ZM64.9936 267.136C64.4027 267.136 63.8842 266.996 63.4382 266.714C62.995 266.433 62.6484 266.04 62.3984 265.534C62.1513 265.028 62.0277 264.437 62.0277 263.761C62.0277 263.08 62.1513 262.484 62.3984 261.976C62.6484 261.467 62.995 261.072 63.4382 260.791C63.8842 260.51 64.4027 260.369 64.9936 260.369C65.5845 260.369 66.1016 260.51 66.5447 260.791C66.9908 261.072 67.3374 261.467 67.5845 261.976C67.8345 262.484 67.9595 263.08 67.9595 263.761C67.9595 264.437 67.8345 265.028 67.5845 265.534C67.3374 266.04 66.9908 266.433 66.5447 266.714C66.1016 266.996 65.5845 267.136 64.9936 267.136ZM64.9936 266.233C65.4425 266.233 65.8118 266.118 66.1016 265.888C66.3913 265.658 66.6058 265.355 66.745 264.98C66.8842 264.605 66.9538 264.199 66.9538 263.761C66.9538 263.324 66.8842 262.916 66.745 262.538C66.6058 262.161 66.3913 261.855 66.1016 261.622C65.8118 261.389 65.4425 261.273 64.9936 261.273C64.5447 261.273 64.1754 261.389 63.8857 261.622C63.5959 261.855 63.3814 262.161 63.2422 262.538C63.103 262.916 63.0334 263.324 63.0334 263.761C63.0334 264.199 63.103 264.605 63.2422 264.98C63.3814 265.355 63.5959 265.658 63.8857 265.888C64.1754 266.118 64.5447 266.233 64.9936 266.233ZM70.5004 263.062V267H69.4947V260.455H70.4663V261.477H70.5515C70.7049 261.145 70.9379 260.878 71.2504 260.676C71.5629 260.472 71.9663 260.369 72.4606 260.369C72.9038 260.369 73.2915 260.46 73.6239 260.642C73.9563 260.821 74.2148 261.094 74.3995 261.46C74.5842 261.824 74.6765 262.284 74.6765 262.841V267H73.6708V262.909C73.6708 262.395 73.5373 261.994 73.2702 261.707C73.0032 261.418 72.6367 261.273 72.1708 261.273C71.8498 261.273 71.5629 261.342 71.31 261.482C71.06 261.621 70.8626 261.824 70.7177 262.091C70.5728 262.358 70.5004 262.682 70.5004 263.062ZM80.6222 267.068C80.4119 267.068 80.2315 266.993 80.081 266.842C79.9304 266.692 79.8551 266.511 79.8551 266.301C79.8551 266.091 79.9304 265.911 80.081 265.76C80.2315 265.609 80.4119 265.534 80.6222 265.534C80.8324 265.534 81.0128 265.609 81.1634 265.76C81.3139 265.911 81.3892 266.091 81.3892 266.301C81.3892 266.44 81.3537 266.568 81.2827 266.685C81.2145 266.801 81.1222 266.895 81.0057 266.966C80.892 267.034 80.7642 267.068 80.6222 267.068ZM83.9268 267.068C83.7166 267.068 83.5362 266.993 83.3857 266.842C83.2351 266.692 83.1598 266.511 83.1598 266.301C83.1598 266.091 83.2351 265.911 83.3857 265.76C83.5362 265.609 83.7166 265.534 83.9268 265.534C84.1371 265.534 84.3175 265.609 84.468 265.76C84.6186 265.911 84.6939 266.091 84.6939 266.301C84.6939 266.44 84.6584 266.568 84.5874 266.685C84.5192 266.801 84.4268 266.895 84.3104 266.966C84.1967 267.034 84.0689 267.068 83.9268 267.068ZM87.2315 267.068C87.0213 267.068 86.8409 266.993 86.6903 266.842C86.5398 266.692 86.4645 266.511 86.4645 266.301C86.4645 266.091 86.5398 265.911 86.6903 265.76C86.8409 265.609 87.0213 265.534 87.2315 265.534C87.4418 265.534 87.6222 265.609 87.7727 265.76C87.9233 265.911 87.9986 266.091 87.9986 266.301C87.9986 266.44 87.9631 266.568 87.892 266.685C87.8239 266.801 87.7315 266.895 87.6151 266.966C87.5014 267.034 87.3736 267.068 87.2315 267.068Z" fill="black"/>
<rect y="306" width="163" height="34" fill="#D9D9D9"/>
<path d="M14.75 328H12.0568V319.273H14.8693C15.7159 319.273 16.4403 319.447 17.0426 319.797C17.6449 320.143 18.1065 320.642 18.4276 321.293C18.7486 321.94 18.9091 322.716 18.9091 323.619C18.9091 324.528 18.7472 325.311 18.4233 325.967C18.0994 326.621 17.6278 327.124 17.0085 327.476C16.3892 327.825 15.6364 328 14.75 328ZM13.1136 327.062H14.6818C15.4034 327.062 16.0014 326.923 16.4759 326.645C16.9503 326.366 17.304 325.97 17.5369 325.456C17.7699 324.942 17.8864 324.33 17.8864 323.619C17.8864 322.915 17.7713 322.308 17.5412 321.8C17.3111 321.288 16.9673 320.896 16.5099 320.624C16.0526 320.348 15.483 320.21 14.8011 320.21H13.1136V327.062ZM23.2898 328.136C22.6591 328.136 22.1151 327.997 21.6577 327.719C21.2031 327.438 20.8523 327.045 20.6051 326.543C20.3608 326.037 20.2386 325.449 20.2386 324.778C20.2386 324.108 20.3608 323.517 20.6051 323.006C20.8523 322.491 21.196 322.091 21.6364 321.804C22.0795 321.514 22.5966 321.369 23.1875 321.369C23.5284 321.369 23.8651 321.426 24.1974 321.54C24.5298 321.653 24.8324 321.838 25.1051 322.094C25.3778 322.347 25.5952 322.682 25.7571 323.099C25.919 323.517 26 324.031 26 324.642V325.068H20.9545V324.199H24.9773C24.9773 323.83 24.9034 323.5 24.7557 323.21C24.6108 322.92 24.4034 322.692 24.1335 322.524C23.8665 322.357 23.5511 322.273 23.1875 322.273C22.7869 322.273 22.4403 322.372 22.1477 322.571C21.858 322.767 21.6349 323.023 21.4787 323.338C21.3224 323.653 21.2443 323.991 21.2443 324.352V324.932C21.2443 325.426 21.3295 325.845 21.5 326.189C21.6733 326.53 21.9134 326.79 22.2202 326.969C22.527 327.145 22.8835 327.233 23.2898 327.233C23.554 327.233 23.7926 327.196 24.0057 327.122C24.2216 327.045 24.4077 326.932 24.5639 326.781C24.7202 326.628 24.8409 326.437 24.9261 326.21L25.8977 326.483C25.7955 326.812 25.6236 327.102 25.3821 327.352C25.1406 327.599 24.8423 327.793 24.4872 327.932C24.1321 328.068 23.733 328.136 23.2898 328.136ZM32.1662 322.92L31.2628 323.176C31.206 323.026 31.1222 322.879 31.0114 322.737C30.9034 322.592 30.7557 322.473 30.5682 322.379C30.3807 322.286 30.1406 322.239 29.848 322.239C29.4474 322.239 29.1136 322.331 28.8466 322.516C28.5824 322.697 28.4503 322.929 28.4503 323.21C28.4503 323.46 28.5412 323.658 28.723 323.803C28.9048 323.947 29.1889 324.068 29.5753 324.165L30.5469 324.403C31.1321 324.545 31.5682 324.763 31.8551 325.055C32.142 325.345 32.2855 325.719 32.2855 326.176C32.2855 326.551 32.1776 326.886 31.9616 327.182C31.7486 327.477 31.4503 327.71 31.0668 327.881C30.6832 328.051 30.2372 328.136 29.7287 328.136C29.0611 328.136 28.5085 327.991 28.071 327.702C27.6335 327.412 27.3565 326.989 27.2401 326.432L28.1946 326.193C28.2855 326.545 28.4574 326.81 28.7102 326.986C28.9659 327.162 29.2997 327.25 29.7116 327.25C30.1804 327.25 30.5526 327.151 30.8281 326.952C31.1065 326.75 31.2457 326.509 31.2457 326.227C31.2457 326 31.1662 325.81 31.0071 325.656C30.848 325.5 30.6037 325.384 30.2741 325.307L29.1832 325.051C28.5838 324.909 28.1435 324.689 27.8622 324.391C27.5838 324.089 27.4446 323.713 27.4446 323.261C27.4446 322.892 27.5483 322.565 27.7557 322.281C27.9659 321.997 28.2514 321.774 28.6122 321.612C28.9759 321.45 29.3878 321.369 29.848 321.369C30.4957 321.369 31.0043 321.511 31.3736 321.795C31.7457 322.08 32.0099 322.455 32.1662 322.92ZM36.4585 328.136C35.8448 328.136 35.3164 327.991 34.8732 327.702C34.43 327.412 34.0891 327.013 33.8505 326.504C33.6119 325.996 33.4925 325.415 33.4925 324.761C33.4925 324.097 33.6147 323.51 33.859 323.001C34.1062 322.49 34.4499 322.091 34.8903 321.804C35.3335 321.514 35.8505 321.369 36.4414 321.369C36.9016 321.369 37.3164 321.455 37.6857 321.625C38.055 321.795 38.3576 322.034 38.5934 322.341C38.8292 322.648 38.9755 323.006 39.0323 323.415H38.0266C37.9499 323.116 37.7795 322.852 37.5153 322.622C37.2539 322.389 36.9016 322.273 36.4585 322.273C36.0664 322.273 35.7227 322.375 35.4272 322.58C35.1346 322.781 34.9059 323.067 34.7411 323.436C34.5792 323.803 34.4982 324.233 34.4982 324.727C34.4982 325.233 34.5778 325.673 34.7369 326.048C34.8988 326.423 35.1261 326.714 35.4187 326.922C35.7141 327.129 36.0607 327.233 36.4585 327.233C36.7198 327.233 36.957 327.188 37.1701 327.097C37.3832 327.006 37.5636 326.875 37.7113 326.705C37.859 326.534 37.9641 326.33 38.0266 326.091H39.0323C38.9755 326.477 38.8349 326.825 38.6104 327.135C38.3888 327.442 38.0948 327.686 37.7283 327.868C37.3647 328.047 36.9414 328.136 36.4585 328.136ZM40.5025 328V321.455H41.4741V322.443H41.5423C41.6616 322.119 41.8775 321.857 42.19 321.655C42.5025 321.453 42.8548 321.352 43.2468 321.352C43.3207 321.352 43.413 321.354 43.5238 321.357C43.6346 321.359 43.7184 321.364 43.7752 321.369V322.392C43.7411 322.384 43.663 322.371 43.5408 322.354C43.4215 322.334 43.2951 322.324 43.1616 322.324C42.8434 322.324 42.5593 322.391 42.3093 322.524C42.0621 322.655 41.8661 322.837 41.7212 323.07C41.5792 323.3 41.5082 323.562 41.5082 323.858V328H40.5025ZM44.9673 328V321.455H45.973V328H44.9673ZM45.4787 320.364C45.2827 320.364 45.1136 320.297 44.9716 320.163C44.8324 320.03 44.7628 319.869 44.7628 319.682C44.7628 319.494 44.8324 319.334 44.9716 319.2C45.1136 319.067 45.2827 319 45.4787 319C45.6747 319 45.8423 319.067 45.9815 319.2C46.1236 319.334 46.1946 319.494 46.1946 319.682C46.1946 319.869 46.1236 320.03 45.9815 320.163C45.8423 320.297 45.6747 320.364 45.4787 320.364ZM47.815 330.455V321.455H48.7866V322.494H48.9059C48.9798 322.381 49.082 322.236 49.2127 322.06C49.3462 321.881 49.5366 321.722 49.7837 321.582C50.0337 321.44 50.3718 321.369 50.7979 321.369C51.3491 321.369 51.8349 321.507 52.2553 321.783C52.6758 322.058 53.0039 322.449 53.2397 322.955C53.4755 323.46 53.5934 324.057 53.5934 324.744C53.5934 325.438 53.4755 326.038 53.2397 326.547C53.0039 327.053 52.6772 327.445 52.2596 327.723C51.842 327.999 51.3604 328.136 50.815 328.136C50.3945 328.136 50.0579 328.067 49.805 327.928C49.5522 327.786 49.3576 327.625 49.2212 327.446C49.0849 327.264 48.9798 327.114 48.9059 326.994H48.8207V330.455H47.815ZM48.8036 324.727C48.8036 325.222 48.8761 325.658 49.021 326.036C49.1658 326.411 49.3775 326.705 49.6559 326.918C49.9343 327.128 50.2752 327.233 50.6786 327.233C51.0991 327.233 51.4499 327.122 51.7312 326.901C52.0153 326.676 52.2283 326.375 52.3704 325.997C52.5153 325.616 52.5877 325.193 52.5877 324.727C52.5877 324.267 52.5167 323.852 52.3746 323.483C52.2354 323.111 52.0238 322.817 51.7397 322.601C51.4585 322.382 51.1048 322.273 50.6786 322.273C50.2695 322.273 49.9258 322.376 49.6474 322.584C49.369 322.788 49.1587 323.075 49.0167 323.445C48.8746 323.811 48.8036 324.239 48.8036 324.727ZM57.9741 321.455V322.307H54.582V321.455H57.9741ZM55.5707 319.886H56.5763V326.125C56.5763 326.409 56.6175 326.622 56.6999 326.764C56.7852 326.903 56.8931 326.997 57.0238 327.045C57.1573 327.091 57.2979 327.114 57.4457 327.114C57.5565 327.114 57.6474 327.108 57.7184 327.097C57.7894 327.082 57.8462 327.071 57.8888 327.062L58.0934 327.966C58.0252 327.991 57.93 328.017 57.8079 328.043C57.6857 328.071 57.5309 328.085 57.3434 328.085C57.0593 328.085 56.7809 328.024 56.5082 327.902C56.2383 327.78 56.0138 327.594 55.8349 327.344C55.6587 327.094 55.5707 326.778 55.5707 326.398V319.886ZM59.4869 328V321.455H60.4925V328H59.4869ZM59.9982 320.364C59.8022 320.364 59.6332 320.297 59.4911 320.163C59.3519 320.03 59.2823 319.869 59.2823 319.682C59.2823 319.494 59.3519 319.334 59.4911 319.2C59.6332 319.067 59.8022 319 59.9982 319C60.1942 319 60.3619 319.067 60.5011 319.2C60.6431 319.334 60.7141 319.494 60.7141 319.682C60.7141 319.869 60.6431 320.03 60.5011 320.163C60.3619 320.297 60.1942 320.364 59.9982 320.364ZM64.9936 328.136C64.4027 328.136 63.8842 327.996 63.4382 327.714C62.995 327.433 62.6484 327.04 62.3984 326.534C62.1513 326.028 62.0277 325.437 62.0277 324.761C62.0277 324.08 62.1513 323.484 62.3984 322.976C62.6484 322.467 62.995 322.072 63.4382 321.791C63.8842 321.51 64.4027 321.369 64.9936 321.369C65.5845 321.369 66.1016 321.51 66.5447 321.791C66.9908 322.072 67.3374 322.467 67.5845 322.976C67.8345 323.484 67.9595 324.08 67.9595 324.761C67.9595 325.437 67.8345 326.028 67.5845 326.534C67.3374 327.04 66.9908 327.433 66.5447 327.714C66.1016 327.996 65.5845 328.136 64.9936 328.136ZM64.9936 327.233C65.4425 327.233 65.8118 327.118 66.1016 326.888C66.3913 326.658 66.6058 326.355 66.745 325.98C66.8842 325.605 66.9538 325.199 66.9538 324.761C66.9538 324.324 66.8842 323.916 66.745 323.538C66.6058 323.161 66.3913 322.855 66.1016 322.622C65.8118 322.389 65.4425 322.273 64.9936 322.273C64.5447 322.273 64.1754 322.389 63.8857 322.622C63.5959 322.855 63.3814 323.161 63.2422 323.538C63.103 323.916 63.0334 324.324 63.0334 324.761C63.0334 325.199 63.103 325.605 63.2422 325.98C63.3814 326.355 63.5959 326.658 63.8857 326.888C64.1754 327.118 64.5447 327.233 64.9936 327.233ZM70.5004 324.062V328H69.4947V321.455H70.4663V322.477H70.5515C70.7049 322.145 70.9379 321.878 71.2504 321.676C71.5629 321.472 71.9663 321.369 72.4606 321.369C72.9038 321.369 73.2915 321.46 73.6239 321.642C73.9563 321.821 74.2148 322.094 74.3995 322.46C74.5842 322.824 74.6765 323.284 74.6765 323.841V328H73.6708V323.909C73.6708 323.395 73.5373 322.994 73.2702 322.707C73.0032 322.418 72.6367 322.273 72.1708 322.273C71.8498 322.273 71.5629 322.342 71.31 322.482C71.06 322.621 70.8626 322.824 70.7177 323.091C70.5728 323.358 70.5004 323.682 70.5004 324.062Z" fill="black"/>
</svg>
